<svg width="17" height="15" viewBox="0 0 17 15" fill="none" xmlns="http://www.w3.org/2000/svg">
<mask id="path-1-inside-1" fill="white">
<path fill-rule="evenodd" clip-rule="evenodd" d="M7 0C5.34315 0 4 1.34315 4 3H2C0.895431 3 0 3.89543 0 5V13C0 14.1046 0.89543 15 2 15H15C16.1046 15 17 14.1046 17 13V5C17 3.89543 16.1046 3 15 3H13C13 1.34315 11.6569 0 10 0H7Z"/>
</mask>
<path d="M4 3V4H5V3H4ZM13 3H12V4H13V3ZM5 3C5 1.89543 5.89543 1 7 1V-1C4.79086 -1 3 0.790861 3 3H5ZM2 4H4V2H2V4ZM1 5C1 4.44772 1.44772 4 2 4V2C0.343146 2 -1 3.34315 -1 5H1ZM1 13V5H-1V13H1ZM2 14C1.44772 14 1 13.5523 1 13H-1C-1 14.6569 0.343146 16 2 16V14ZM15 14H2V16H15V14ZM16 13C16 13.5523 15.5523 14 15 14V16C16.6569 16 18 14.6569 18 13H16ZM16 5V13H18V5H16ZM15 4C15.5523 4 16 4.44772 16 5H18C18 3.34315 16.6569 2 15 2V4ZM13 4H15V2H13V4ZM10 1C11.1046 1 12 1.89543 12 3H14C14 0.790861 12.2091 -1 10 -1V1ZM7 1H10V-1H7V1Z" fill="#333333" mask="url(#path-1-inside-1)"/>
<circle cx="8.5" cy="8.5" r="3" stroke="#333333"/>
</svg>
