<svg width="33" height="29" viewBox="0 0 33 29" fill="none" xmlns="http://www.w3.org/2000/svg">
<path d="M9.5 1.5L7 4L9.5 6.5L7 9" stroke="white" stroke-width="2" stroke-linecap="round"/>
<path d="M15.5 1.5L13 4L15.5 6.5L13 9" stroke="white" stroke-width="2" stroke-linecap="round"/>
<path d="M10 13H13C16.5265 13 19.4439 15.6077 19.9291 19H3.07089C3.55612 15.6077 6.47353 13 10 13Z" stroke="white" stroke-width="2"/>
<rect x="1" y="19" width="21" height="5" rx="2.5" stroke="white" stroke-width="2"/>
<rect x="3" y="24" width="17" height="4" rx="2" stroke="white" stroke-width="2"/>
<path d="M22 7H32" stroke="white" stroke-width="2"/>
<path d="M22.5 28H31.5" stroke="white" stroke-width="2"/>
<path d="M27 15V27.5" stroke="white" stroke-width="2"/>
<path d="M22 3H32V9C32 11.7614 29.7614 14 27 14C24.2386 14 22 11.7614 22 9V3Z" stroke="white" stroke-width="2"/>
</svg>
