<svg width="36" height="36" viewBox="0 0 36 36" fill="none" xmlns="http://www.w3.org/2000/svg">
<circle cx="18" cy="18" r="18" fill="#888888"/>
<path d="M20.375 20.5469C20.375 20.1042 20.2188 19.7656 19.9062 19.5312C19.5938 19.2917 19.0312 19.0417 18.2188 18.7812C17.4062 18.5156 16.763 18.2552 16.2891 18C14.9974 17.3021 14.3516 16.362 14.3516 15.1797C14.3516 14.5651 14.5234 14.0182 14.8672 13.5391C15.2161 13.0547 15.7135 12.6771 16.3594 12.4062C17.0104 12.1354 17.7396 12 18.5469 12C19.3594 12 20.0833 12.1484 20.7188 12.4453C21.3542 12.737 21.8464 13.151 22.1953 13.6875C22.5495 14.224 22.7266 14.8333 22.7266 15.5156H20.3828C20.3828 14.9948 20.2188 14.5911 19.8906 14.3047C19.5625 14.013 19.1016 13.8672 18.5078 13.8672C17.9349 13.8672 17.4896 13.9896 17.1719 14.2344C16.8542 14.474 16.6953 14.7917 16.6953 15.1875C16.6953 15.5573 16.8802 15.8672 17.25 16.1172C17.625 16.3672 18.1745 16.6016 18.8984 16.8203C20.2318 17.2214 21.2031 17.7188 21.8125 18.3125C22.4219 18.9062 22.7266 19.6458 22.7266 20.5312C22.7266 21.5156 22.3542 22.2891 21.6094 22.8516C20.8646 23.4089 19.862 23.6875 18.6016 23.6875C17.7266 23.6875 16.9297 23.5286 16.2109 23.2109C15.4922 22.888 14.9427 22.4479 14.5625 21.8906C14.1875 21.3333 14 20.6875 14 19.9531H16.3516C16.3516 21.2083 17.1016 21.8359 18.6016 21.8359C19.1589 21.8359 19.5938 21.724 19.9062 21.5C20.2188 21.2708 20.375 20.9531 20.375 20.5469Z" fill="white"/>
</svg>
