<svg width="37" height="36" viewBox="0 0 37 36" fill="none" xmlns="http://www.w3.org/2000/svg">
<mask id="mask0" mask-type="alpha" maskUnits="userSpaceOnUse" x="0" y="0" width="37" height="36">
<circle cx="18.0032" cy="18" r="18" fill="#888888"/>
</mask>
<g mask="url(#mask0)">
<path d="M37 17.5465C37 27.9479 28.611 36.3798 18.2629 36.3798C7.9146 36.3798 -0.474365 27.948 -0.474365 17.5465C-0.474365 7.14519 7.9146 -1.28687 18.2629 -1.28687C28.6111 -1.28687 37 7.14519 37 17.5465Z" fill="white"/>
<path d="M18.1065 5.40874C18.7661 5.78893 19.4658 6.27822 19.9984 6.79674L19.7892 7.00699C18.7382 6.89525 17.6312 7.03471 16.6349 7.05008C16.5238 6.93796 16.2999 6.7694 16.5084 6.62856L18.1065 5.40874ZM36.6906 18.4645C36.7045 18.9389 36.7491 19.3463 36.5641 19.8318C34.644 20.3779 33.3827 18.3449 31.5196 18.6516L31.7303 19.7053C33.4539 19.762 34.5305 21.4148 36.3111 21.3438C36.0582 21.8491 36.424 23.1802 35.3032 22.6481C34.1398 22.3686 33.2987 21.3438 32.0238 21.3438C31.87 21.6262 31.9674 22.0172 31.9404 22.3513C33.2853 22.5623 34.2526 23.699 35.5971 23.9089C35.4706 24.371 35.3453 24.8884 34.9666 25.1702C33.8727 24.904 33.0184 23.9216 31.8539 23.9497L31.6465 24.9173C32.7532 24.9458 33.4682 25.9249 34.4628 26.2188C34.4901 26.6269 34.1253 26.9916 33.9152 27.356C33.0322 27.0908 32.3589 26.3323 31.3501 26.3882C31.3361 26.0081 31.5617 25.5766 31.4766 25.1702C30.3435 25.5071 29.5838 24.4544 28.744 23.8229C28.7198 21.7562 26.5442 20.4005 26.4293 18.4645C26.4073 18.0785 26.4661 17.6664 26.642 17.2236C27.357 15.5703 27.1324 13.4238 26.3483 11.8824C26.1101 11.4767 25.688 11.1565 25.2946 10.918C25.8701 12.1379 26.5716 13.5791 26.2215 15.0785C26.1809 16.2363 25.4978 17.3483 25.4899 18.4645C25.4873 18.8624 25.5722 19.2604 25.8011 19.6623C26.7127 21.304 28.3526 22.858 27.736 24.9169C27.5664 25.5493 27.0615 26.0384 26.9355 26.682C28.0019 27.5652 29.0102 28.5604 30.4252 28.6165C30.9293 28.2945 30.6493 26.8665 31.6864 27.5251L33.2008 28.2826C33.0904 28.688 32.751 29.0513 32.4437 29.3305C31.8691 29.0508 31.3086 28.7156 30.5922 28.743C30.3809 28.9671 30.1992 29.2186 30.2153 29.5403C30.7194 29.6233 31.1819 29.836 31.603 30.1308C31.4075 30.552 31.0264 30.8159 30.6761 31.1384L29.5014 30.7184C29.3052 30.9991 28.8978 31.294 29.0408 31.602C29.3059 31.7155 29.5999 31.8689 29.795 32.0656C29.2765 32.626 28.6193 32.9866 27.9869 33.367C27.4422 31.5866 25.6474 30.3383 25.8015 28.2794L25.7181 28.1961C25.2962 28.6704 25.4372 29.4289 25.4644 30.0444C25.9693 31.334 27.1736 32.3301 27.3563 33.7443C27.1454 34.1083 26.67 34.1808 26.3053 34.3349C26.3476 31.7851 22.48 29.8513 24.9602 27.2722C25.7874 26.0093 27.1732 24.8041 26.6822 23.0654C26.178 21.3866 24.3948 20.3464 24.4106 18.4645L24.4134 18.3177C24.8195 16.3551 26.0533 14.2668 25.044 12.179C24.7627 11.3393 24.1342 10.385 23.2793 10.0341C24.5538 11.4929 25.0591 13.873 24.33 15.836C23.9625 16.6168 23.4566 17.547 23.4058 18.4649H23.4028C23.3757 18.9442 23.4736 19.4209 23.7828 19.8729C24.7506 21.443 26.4314 23.1678 25.4645 25.214C24.3715 26.8529 22.4656 28.5201 23.53 30.6788C24.3007 31.9681 25.493 33.2545 25.1713 34.8394L23.9101 35.2594C24.751 32.3033 20.6303 30.5663 22.3553 27.6092C23.4203 26.0257 25.325 24.5399 24.2468 22.4383C23.6022 21.136 22.2703 20.3653 22.3123 18.738L22.3582 18.4647C22.7922 16.1567 24.5466 13.9721 23.3199 11.5057C22.9975 10.7774 22.3533 10.0349 21.6382 9.61418L21.595 9.65739C23.0252 11.0448 23.4603 13.3274 22.6893 15.1624C22.3295 16.239 21.5399 17.3114 21.3794 18.4651C21.303 19.0091 21.3674 19.5728 21.6817 20.1667C22.5925 21.609 24.1897 23.1389 23.193 25.0036C22.1434 26.5438 20.3911 28.0424 21.091 30.0453C21.862 31.7976 23.4718 33.4669 22.6026 35.6397L21.3011 35.9336C22.3378 33.8161 20.7834 31.715 19.8728 29.8785C18.7651 27.2437 22.2527 25.9821 22.3087 23.5732C22.2955 22.0184 20.6425 21.1355 20.2932 19.7062C19.5778 19.1027 18.8363 19.9462 17.981 19.7896C17.3496 19.9165 16.3799 18.9205 16.003 20.0001C15.5541 21.5829 13.5093 22.7465 14.408 24.6238C15.2631 26.2921 17.3211 27.512 16.6336 29.671C16.0181 31.6876 13.9848 33.6078 15.2459 35.9336C14.7278 35.7658 13.7605 36.0871 13.7745 35.2595C12.976 32.4429 16.3809 30.8019 15.3293 27.9867C14.8398 26.2624 12.6099 25.3097 13.1009 23.2358C13.4638 21.5286 15.3795 20.3351 15.1108 18.465C15.089 18.3084 15.0505 18.1482 14.9954 17.9811C14.2804 15.9631 12.8216 13.9446 13.6911 11.5894C13.9298 10.9166 14.4066 10.3422 14.8256 9.74092C13.4381 10.4834 12.7382 12.0534 12.7669 13.6507C12.7064 15.3876 13.9895 16.8755 14.172 18.465C14.2438 19.1064 14.1388 19.7633 13.6911 20.4601C12.7809 21.6951 11.5905 22.9973 12.1363 24.6235C12.6552 26.2639 14.701 27.2576 14.5749 29.1642C14.5611 31.4196 11.9404 32.8238 12.6831 35.3461L11.3788 34.9229C10.8609 32.6816 13.2428 31.5348 13.2702 29.461C13.6073 27.0762 10.5656 26.1913 10.7481 23.8666C10.735 22.1003 12.2898 20.9816 12.9765 19.4958C13.0943 19.1343 13.1335 18.7926 13.1177 18.4651C13.0336 16.8224 11.5534 15.5381 11.799 13.6911C11.8817 12.3319 12.3441 11.1404 13.2273 10.1181C12.0088 10.6076 11.5054 12.0104 11.1688 13.1877C10.5846 15.0756 11.9791 16.7738 12.1189 18.4652C12.1809 19.2121 11.9983 19.9548 11.2955 20.714C10.2859 21.9037 9.26214 23.4049 9.99103 25.0039C10.7629 26.7682 13.1878 28.1414 12.136 30.342C11.5622 31.7296 10.1882 32.78 10.2446 34.419C9.88055 34.2648 9.50288 34.1112 9.19348 33.8316C9.19348 31.7439 12.1632 30.44 10.7483 28.2398C10.6229 28.6739 10.596 29.2639 10.4978 29.7543C10.0068 31.0302 8.95614 32.0515 8.56297 33.3704C7.90551 33.1167 7.21806 32.5836 6.6712 32.0231L7.42869 31.5595C7.34454 31.2787 7.12068 31.0407 6.92491 30.8025C6.43298 30.7334 6.10998 31.0561 5.70446 31.1826C5.35412 30.8737 5.016 30.5933 4.73671 30.215C4.98816 29.4988 6.95288 30.091 5.95754 28.9135C5.28559 28.4934 4.61112 29.0935 4.02268 29.3737L3.22501 28.3662C3.9117 27.9462 4.59663 27.3562 5.45074 27.5254C5.66125 27.9045 5.67586 28.4619 6.08138 28.6598C7.52506 28.6317 8.54798 27.5398 9.65468 26.6846C8.88333 25.5369 8.25547 23.9524 8.94065 22.5644C9.48965 21.1735 10.9201 20.002 10.985 18.4643C10.9996 18.1144 10.945 17.7462 10.792 17.3498C10.0356 15.4016 9.76869 12.7686 11.2124 11.0443C10.4274 11.2551 9.96458 12.2335 9.69789 12.9763C8.83004 14.8787 9.92767 16.6411 9.96559 18.4642C9.97075 18.7921 9.94417 19.1208 9.86468 19.4519C9.12167 20.9512 7.91785 22.2668 7.72234 23.9922C6.86722 24.5376 6.16515 25.4915 4.94672 25.1697C4.90388 25.4916 5.00202 25.9824 5.11376 26.3471C4.14753 26.3066 3.48867 27.0187 2.67512 27.3551C2.24177 27.216 2.12902 26.6558 1.96122 26.2638C2.91347 25.9421 3.60041 24.9875 4.69376 25.0026C4.82049 24.6505 4.62271 24.3279 4.5669 23.9919C3.20687 23.3882 1.05105 26.976 0.869767 23.8654C2.22879 23.7813 3.09727 22.5198 4.44319 22.394L4.48338 21.3865C2.95592 21.2322 1.97331 22.8024 0.446489 22.6476L0.109756 21.3031C1.87593 21.4134 2.92821 19.8307 4.61024 19.7455C4.83372 19.4516 4.86067 19.0171 4.90376 18.6111C3.06779 18.3719 1.80791 20.4065 -0.140684 19.7886C-0.140684 19.7886 -0.207829 18.9418 -0.244236 18.4643H-0.24159C-0.254818 18.2777 -0.267415 18.1475 -0.267415 18.1475C1.47017 18.8217 2.99687 17.5737 4.48338 16.9295C4.86143 16.8163 5.451 17.0125 5.62056 16.5925C5.60582 16.2701 6.19375 15.8932 5.70433 15.6682C3.53113 15.3733 2.08745 17.9945 -0.140936 16.8026L-0.308105 16.4656C0.155485 10.1322 3.7274 4.00903 9.65468 0.995814C12.0553 -0.37606 15.0376 -1.07535 18.0453 -1.10017C21.675 -1.13028 25.3427 -0.178153 28.0711 1.75318C30.7206 3.37839 33.255 6.05676 34.6304 8.77569C35.9458 11.1579 36.5512 13.831 36.732 16.6768C34.4332 18.4137 32.891 15.0403 30.5501 15.7953C30.6762 16.1604 30.746 16.5381 31.0136 16.8463C33.0883 16.8317 34.517 19.004 36.6887 18.1479L36.6906 18.4645ZM10.2846 10.6643C8.82689 9.71106 6.97883 10.6086 5.62031 11.1278C5.49421 9.8519 4.97607 8.68952 3.8957 7.84876C3.79089 7.79661 3.64602 7.68688 3.51551 7.67882C3.4374 7.67391 3.36308 7.7054 3.30538 7.8053C3.79505 10.8178 1.83676 12.9198 0.449008 15.205C0.911087 15.5827 1.65346 15.5262 2.21393 15.4152C3.68507 14.8269 5.08642 13.803 6.83811 14.154C7.35613 13.2711 8.22649 12.416 8.94014 11.7153C9.37615 11.338 9.97516 11.0984 10.2846 10.6643ZM14.7418 12.5562C14.7139 12.7376 14.7558 13.061 15.0355 12.936C15.4706 12.3335 16.2409 12.8102 16.7171 12.8526V12.6831C16.4559 12.2728 15.9183 12.0667 15.3725 12.0872C15.2465 12.0916 15.1185 12.11 14.9953 12.1386C14.8126 12.1792 14.6855 12.3463 14.7418 12.5562ZM21.5944 10.7509C21.2031 9.88176 20.3062 9.53003 19.4922 9.3199C19.0933 9.27077 18.6792 9.23752 18.2685 9.23361C18.1915 9.23286 18.1147 9.23185 18.0381 9.23361C16.8893 9.25679 15.7917 9.5517 15.1211 10.4973C15.0249 10.7642 14.6017 11.1391 14.9947 11.3783C15.8776 11.3219 16.8852 11.2112 17.4737 11.9689C17.4737 12.6423 17.9085 13.5381 17.1801 13.8604C16.5765 13.3016 15.8617 14.0983 15.205 13.6498C14.8963 13.4674 14.7009 13.6803 14.5744 13.9465C14.3919 15.6838 15.3015 17.6012 16.9269 18.5678C17.5856 18.8054 18.4711 19.0314 19.1585 18.6943C20.8121 17.9243 21.497 16.1596 21.8049 14.5338C21.7636 14.2244 21.7783 13.6215 21.3442 13.6069C20.854 13.9169 20.1391 13.7337 19.6196 13.6069C19.3125 13.706 19.2984 14.1554 18.9488 14.2405L18.7358 14.0706C18.5533 13.301 18.4408 12.2075 19.1563 11.675C19.9557 11.3526 20.8946 11.2118 21.7214 11.4648C21.8757 11.1987 21.6375 10.9892 21.5944 10.7509ZM20.7507 12.1327C20.6952 12.1341 20.6411 12.1368 20.5865 12.1386C20.2928 12.3345 19.4371 12.1937 19.746 12.8526C20.2788 12.4311 21.0216 12.7265 21.5541 12.936C21.751 12.8383 21.7083 12.642 21.7213 12.4728C21.5503 12.1547 21.1418 12.1249 20.7507 12.1327ZM26.8522 6.20755C25.815 6.1525 24.9464 6.74131 23.9932 7.00775C23.9102 6.19672 24.5264 5.34021 24.6669 4.52603C23.1259 4.62517 21.9053 5.55273 20.6304 6.29372C20.3354 5.58082 20.0395 4.86427 19.7465 4.14873L21.4281 2.55073L21.4712 2.34023L19.1997 2.21375C18.8084 1.52819 18.6543 0.702417 18.1918 0.0717828C17.8134 0.786443 17.5591 1.5428 17.1811 2.25683L14.9123 2.38369V2.55073L16.6342 4.10552C16.4237 4.90471 16.2281 5.77306 15.7101 6.37711C14.7011 5.77281 13.7066 5.11509 12.6004 4.69547C12.3342 4.60955 11.9547 4.46984 11.7165 4.65238C12.0664 5.42335 12.5563 6.25265 12.4739 7.09417C12.0112 7.00901 11.6475 6.71234 11.2127 6.58762C10.6928 6.44577 10.0759 6.16863 9.57153 6.33718C10.4125 7.51367 11.099 8.74495 11.3365 10.1608C14.1264 8.81424 17.3801 8.07363 20.7575 8.64908C22.3407 8.90104 23.7965 9.54591 25.212 10.0771C25.2673 8.59252 26.2062 7.39953 26.8522 6.20755ZM31.6433 14.2806C33.0717 14.6586 34.5045 16.2148 36.017 15.2051C34.6998 13.0193 32.7392 11.0008 33.2844 8.14241C33.3415 7.94727 33.2154 7.74974 33.034 7.72203C32.1795 8.07123 31.5178 8.91313 31.1796 9.74066C31.0406 10.2301 30.9582 10.7504 30.7623 11.2117C29.7386 10.6789 28.6463 10.1628 27.3991 10.2875C26.9494 10.3436 26.3046 10.3731 26.2216 10.8348C27.6369 11.5911 28.8008 12.8534 29.6682 14.1976C30.2721 14.099 31.0127 14.1832 31.6433 14.2806ZM16.6767 16.256L16.717 16.5093C17.2646 16.8742 17.433 17.4924 18.1912 17.4363C18.8635 17.4762 19.3679 16.8463 19.7029 16.3422C18.7931 16.2166 17.686 16.4109 16.6767 16.256ZM17.4338 15.1216C17.4611 15.2338 17.3644 15.402 17.5172 15.4587C17.9657 15.3613 18.7781 15.6973 19.0285 15.1648C18.8537 14.9689 18.5682 14.88 18.2686 14.88C17.9692 14.88 17.6584 14.9673 17.4338 15.1216Z" fill="#007042"/>
<path opacity="0.99" d="M16.6775 14.6353H19.7503V15.8977H16.6775V14.6353Z" fill="white"/>
<path d="M17.2452 15.3103C17.6423 15.4043 17.7406 15.5451 18.0544 15.5844C18.388 15.5785 18.3398 15.5108 18.9217 15.3099C18.9599 15.2965 19.0124 15.2122 18.9473 15.1476C18.586 14.7889 18.3363 15.0451 18.1098 15.0519C17.8094 15.0552 17.5275 14.7947 17.234 15.1333C17.184 15.2021 17.1579 15.2696 17.2452 15.3103Z" fill="#007042"/>
<path d="M31.7621 36.0245V34.2264H31.1199V33.8604H32.8397V34.2264H32.199V36.0245H31.7621Z" fill="#007042"/>
<path d="M33.1172 36.0236V33.8593H33.7711L34.1638 35.3357L34.5521 33.8593H35.2075V36.0236H34.8015V34.32L34.3719 36.0236H33.9511L33.5231 34.32V36.0236H33.1172Z" fill="#007042"/>
</g>
</svg>
