<svg width="16" height="16" viewBox="0 0 16 16" fill="none" xmlns="http://www.w3.org/2000/svg">
<path fill-rule="evenodd" clip-rule="evenodd" d="M10.7324 11.0545C11.1073 10.649 11.74 10.6241 12.1455 10.9991L15.6789 14.2657C16.0844 14.6407 16.1092 15.2733 15.7343 15.6789C15.3594 16.0844 14.7267 16.1092 14.3211 15.7343L10.7878 12.4676C10.3823 12.0927 10.3575 11.46 10.7324 11.0545Z" fill="white"/>
<path fill-rule="evenodd" clip-rule="evenodd" d="M7 12C9.76142 12 12 9.76142 12 7C12 4.23858 9.76142 2 7 2C4.23858 2 2 4.23858 2 7C2 9.76142 4.23858 12 7 12ZM7 14C10.866 14 14 10.866 14 7C14 3.13401 10.866 0 7 0C3.13401 0 0 3.13401 0 7C0 10.866 3.13401 14 7 14Z" fill="white"/>
</svg>
