<svg width="61" height="61" viewBox="0 0 61 61" fill="none" xmlns="http://www.w3.org/2000/svg">
<mask id="mask0" mask-type="alpha" maskUnits="userSpaceOnUse" x="0" y="0" width="61" height="61">
<circle cx="30.0063" cy="30.0032" r="30" fill="#888888"/>
</mask>
<g mask="url(#mask0)">
<rect width="62.4572" height="62.7779" transform="translate(-0.789551 -2.14162)" fill="white"/>
<path d="M61.6677 29.2473C61.6677 46.583 47.6861 60.6362 30.4392 60.6362C13.1921 60.6362 -0.789551 46.5832 -0.789551 29.2473C-0.789551 11.9118 13.1921 -2.14162 30.4392 -2.14162C47.6863 -2.14162 61.6677 11.9118 61.6677 29.2473Z" fill="white"/>
<path d="M30.1786 9.01772C31.2779 9.65137 32.444 10.4669 33.3317 11.331L32.983 11.6815C31.2313 11.4952 29.3864 11.7277 27.7258 11.7533C27.5406 11.5664 27.1675 11.2855 27.515 11.0508L30.1786 9.01772ZM61.152 30.7773C61.1753 31.568 61.2496 32.247 60.9412 33.0562C57.741 33.9663 55.6389 30.578 52.5338 31.0891L52.8848 32.8454C55.7575 32.9399 57.5518 35.6945 60.5196 35.5761C60.098 36.4183 60.7077 38.6369 58.8397 37.75C56.9007 37.2841 55.4988 35.5761 53.374 35.5761C53.1177 36.0468 53.28 36.6986 53.235 37.2554C55.4766 37.607 57.0886 39.5015 59.3295 39.8513C59.1187 40.6214 58.9098 41.4837 58.2787 41.9534C56.4556 41.5098 55.0317 39.8725 53.0908 39.9193L52.7452 41.532C54.5897 41.5795 55.7814 43.2113 57.4391 43.7011C57.4846 44.3814 56.8766 44.9892 56.5264 45.5964C55.0548 45.1545 53.9325 43.8903 52.2512 43.9835C52.2279 43.3501 52.6039 42.6307 52.462 41.9534C50.5736 42.5151 49.3073 40.7604 47.9078 39.7079C47.8674 36.2635 44.2414 34.0039 44.05 30.7773C44.0132 30.134 44.1113 29.4472 44.4044 28.7092C45.5961 25.9537 45.2217 22.3762 43.915 19.8071C43.5179 19.131 42.8143 18.5973 42.1586 18.1999C43.1179 20.2329 44.287 22.6351 43.7035 25.134C43.6359 27.0637 42.4973 28.917 42.4843 30.7773C42.4799 31.4405 42.6214 32.1038 43.0029 32.7736C44.5222 35.5098 47.2554 38.0998 46.2277 41.5314C45.9451 42.5854 45.1035 43.4005 44.8936 44.4731C46.6709 45.9452 48.3514 47.6038 50.7097 47.6973C51.5499 47.1606 51.0832 44.7807 52.8118 45.8784L55.3357 47.1409C55.1518 47.8165 54.5861 48.4221 54.0738 48.8873C53.1162 48.4212 52.1821 47.8625 50.9881 47.9081C50.636 48.2816 50.333 48.7009 50.3599 49.2369C51.2001 49.3753 51.9709 49.7299 52.6728 50.2212C52.3469 50.9231 51.7118 51.363 51.1279 51.9004L49.17 51.2004C48.8431 51.6682 48.1641 52.1597 48.4024 52.6731C48.8442 52.8623 49.3342 53.118 49.6594 53.4457C48.7952 54.3799 47.6999 54.9808 46.6459 55.6148C45.738 52.6475 42.7467 50.567 43.0035 47.1354L42.8645 46.9966C42.1614 47.7871 42.3963 49.0513 42.4417 50.0772C43.2832 52.2265 45.2904 53.8867 45.5948 56.2437C45.2434 56.8502 44.451 56.9712 43.8431 57.228C43.9137 52.9784 37.4677 49.7553 41.6014 45.4568C42.98 43.352 45.2898 41.3433 44.4713 38.4454C43.6311 35.6475 40.6591 33.9139 40.6854 30.7773L40.69 30.5327C41.3669 27.2617 43.4232 23.7812 41.741 20.3016C41.2722 18.902 40.2247 17.3115 38.7999 16.7266C40.9241 19.1579 41.7662 23.1249 40.551 26.3965C39.9385 27.6978 39.0953 29.2481 39.0107 30.7779H39.0057C38.9605 31.5768 39.1237 32.3713 39.6391 33.1246C41.252 35.7416 44.0533 38.6161 42.4419 42.0265C40.6203 44.7581 37.4438 47.5367 39.2177 51.1345C40.5023 53.2832 42.4893 55.4273 41.9533 58.0688L39.8512 58.7688C41.2527 53.8419 34.3849 50.947 37.2599 46.0184C39.0349 43.3792 42.2095 40.903 40.4124 37.4002C39.338 35.2299 37.1181 33.9454 37.1883 31.2331L37.2647 30.7777C37.988 26.931 40.9121 23.2899 38.8675 19.1793C38.3302 17.9656 37.2565 16.7281 36.0648 16.0268L35.9928 16.0988C38.3764 18.4111 39.1016 22.2156 37.8165 25.2738C37.2168 27.0681 35.9008 28.8555 35.6333 30.7783C35.5061 31.6849 35.6134 32.6245 36.1372 33.6142C37.6552 36.0181 40.3173 38.568 38.6561 41.6758C36.9067 44.2428 33.9862 46.7405 35.1527 50.0786C36.4377 52.9992 39.1207 55.7813 37.672 59.4027L35.5029 59.8926C37.2307 56.3633 34.64 52.8614 33.1224 49.8006C31.2762 45.4093 37.089 43.3066 37.1822 39.2918C37.1601 36.7004 34.4053 35.229 33.823 32.8468C32.6307 31.8409 31.3949 33.2468 29.9694 32.9858C28.9171 33.1973 27.3009 31.5373 26.6727 33.3367C25.9246 35.9746 22.5165 37.914 24.0144 41.0428C25.4396 43.8233 28.8695 45.8566 27.7237 49.4548C26.6979 52.8159 23.3091 56.0161 25.4108 59.8926C24.5475 59.6129 22.9352 60.1483 22.9585 58.7691C21.6278 54.0746 27.3025 51.3396 25.5498 46.6477C24.7341 43.7738 21.0176 42.186 21.8358 38.7295C22.4407 35.8841 25.6336 33.895 25.1857 30.7781C25.1494 30.5171 25.0852 30.2501 24.9934 29.9717C23.8017 26.6083 21.3704 23.2441 22.8195 19.3187C23.2174 18.1976 24.0121 17.2401 24.7104 16.238C22.3979 17.4755 21.2314 20.0922 21.2792 22.7543C21.1785 25.6492 23.3169 28.1291 23.6211 30.7781C23.7408 31.8472 23.5657 32.942 22.8195 34.1032C21.3025 36.1617 19.3186 38.332 20.2282 41.0424C21.093 43.7763 24.5027 45.4324 24.2926 48.6102C24.2695 52.3691 19.9017 54.7095 21.1396 58.9133L18.9657 58.208C18.1025 54.4725 22.0725 52.5612 22.118 49.1048C22.6799 45.1301 17.6104 43.6553 17.9146 39.7808C17.8928 36.8369 20.4841 34.9725 21.6286 32.4962C21.8249 31.8936 21.8902 31.3242 21.864 30.7783C21.7237 28.0405 19.2567 25.8999 19.6661 22.8217C19.8038 20.5562 20.5746 18.5704 22.0466 16.8666C20.0157 17.6825 19.1767 20.0204 18.6157 21.9827C17.6421 25.1292 19.9661 27.9594 20.1992 30.7785C20.3025 32.0234 19.9983 33.2611 18.8269 34.5265C17.1443 36.5094 15.438 39.0113 16.6528 41.6763C17.9392 44.6167 21.9807 46.9055 20.2278 50.5731C19.2714 52.8858 16.9814 54.6364 17.0754 57.3682C16.4686 57.1112 15.8392 56.8551 15.3235 56.3892C15.3235 52.9097 20.2731 50.7364 17.9148 47.0695C17.7059 47.793 17.661 48.7763 17.4974 49.5936C16.679 51.7201 14.928 53.4222 14.2727 55.6205C13.1769 55.1976 12.0312 54.3091 11.1197 53.375L12.3822 52.6023C12.242 52.1343 11.8689 51.7377 11.5426 51.3407C10.7227 51.2254 10.1843 51.7633 9.50849 51.9741C8.92459 51.4593 8.36106 50.992 7.89558 50.3614C8.31466 49.1678 11.5892 50.1548 9.9303 48.1924C8.81037 47.4921 7.68625 48.4924 6.70553 48.9593L5.37607 47.2801C6.52056 46.5801 7.66211 45.5968 9.08563 45.8788C9.43647 46.5106 9.46083 47.4397 10.1367 47.7695C12.5428 47.7227 14.2477 45.9027 16.0922 44.4775C14.8066 42.5646 13.7602 39.9237 14.9021 37.6104C15.8171 35.2922 18.2012 33.3398 18.3094 30.7771C18.3337 30.1938 18.2428 29.5801 17.9877 28.9196C16.7271 25.6725 16.2822 21.2842 18.6883 18.4102C17.3801 18.7617 16.6087 20.3923 16.1642 21.6304C14.7178 24.801 16.5472 27.7383 16.6104 30.7769C16.619 31.3234 16.5747 31.8712 16.4422 32.4229C15.2038 34.9219 13.1975 37.1145 12.8716 39.9901C11.4464 40.8992 10.2763 42.489 8.24558 41.9526C8.1742 42.4892 8.33776 43.3072 8.52399 43.9151C6.9136 43.8475 5.81551 45.0344 4.4596 45.5949C3.73734 45.3632 3.54942 44.4295 3.26976 43.7761C4.85684 43.24 6.00175 41.649 7.82399 41.6742C8.0352 41.0873 7.70557 40.5496 7.61256 39.9897C5.34583 38.9835 1.7528 44.9632 1.45067 39.7789C3.71571 39.6386 5.16317 37.5361 7.40638 37.3265L7.47335 35.6473C4.9276 35.3901 3.28991 38.0072 0.745205 37.7492L0.183984 35.5083C3.12761 35.6922 4.88141 33.0543 7.68478 32.9124C8.05725 32.4225 8.10218 31.6984 8.17399 31.0217C5.11404 30.623 3.01424 34.014 -0.233415 32.9842C-0.233415 32.9842 -0.345324 31.5728 -0.406002 30.7771H-0.401593C-0.423638 30.4659 -0.444634 30.249 -0.444634 30.249C2.45134 31.3727 4.99583 29.2927 7.47335 28.2189C8.10344 28.0304 9.08605 28.3573 9.36866 27.6573C9.34409 27.12 10.324 26.4918 9.50828 26.1168C5.88627 25.6253 3.48014 29.9939 -0.233835 28.0075L-0.512451 27.4458C0.260199 16.8901 6.21339 6.68486 16.0922 1.66284C20.0932 -0.623619 25.0638 -1.7891 30.0765 -1.83047C36.1261 -1.88065 42.2388 -0.293773 46.7861 2.92511C51.202 5.6338 55.426 10.0977 57.7183 14.6293C59.9107 18.5996 60.9198 23.0548 61.2211 27.7977C57.3897 30.6927 54.8194 25.0704 50.9179 26.3287C51.1281 26.9371 51.2444 27.5666 51.6904 28.0803C55.1482 28.056 57.5293 31.6765 61.1488 30.2496L61.152 30.7773ZM17.142 17.777C14.7125 16.1882 11.6324 17.6842 9.36824 18.5494C9.15807 16.423 8.2945 14.4857 6.49389 13.0844C6.31921 12.9975 6.07775 12.8146 5.86024 12.8012C5.73006 12.793 5.60618 12.8455 5.51002 13.012C6.32614 18.0327 3.06232 21.5361 0.749405 25.3448C1.51954 25.9742 2.75683 25.8802 3.69094 25.6952C6.14284 24.7147 8.47843 23.0081 11.3979 23.5931C12.2613 22.1217 13.7119 20.6965 14.9013 19.5287C15.628 18.8999 16.6263 18.5005 17.142 17.777ZM24.5708 20.9302C24.5242 21.2325 24.5941 21.7715 25.0602 21.5632C25.7854 20.559 27.0693 21.3535 27.8629 21.4242V21.1416C27.4275 20.4578 26.5316 20.1143 25.6218 20.1485C25.4119 20.1558 25.1985 20.1865 24.9932 20.2342C24.6888 20.3018 24.4769 20.5804 24.5708 20.9302ZM35.9917 17.9213C35.3396 16.4727 33.8447 15.8865 32.4881 15.5363C31.8232 15.4544 31.133 15.399 30.4486 15.3925C30.3203 15.3912 30.1922 15.3896 30.0646 15.3925C28.1499 15.4311 26.3206 15.9226 25.203 17.4986C25.0425 17.9435 24.3373 18.5683 24.9922 18.9671C26.4638 18.873 28.143 18.6884 29.1239 19.9513C29.1239 21.0736 29.8485 22.5666 28.6345 23.1039C27.6286 22.1725 26.4373 23.5003 25.3428 22.7528C24.8282 22.4488 24.5025 22.8036 24.2917 23.2473C23.9875 26.1428 25.5036 29.3384 28.2125 30.9494C29.3104 31.3454 30.7862 31.7221 31.9319 31.1602C34.6879 29.877 35.8294 26.9359 36.3426 24.2261C36.2737 23.7105 36.2983 22.7056 35.5747 22.6812C34.7578 23.198 33.5663 22.8927 32.7004 22.6812C32.1885 22.8465 32.165 23.5954 31.5824 23.7373L31.2273 23.4541C30.9233 22.1715 30.7358 20.349 31.9282 19.4615C33.2606 18.9242 34.8254 18.6895 36.2034 19.1111C36.4606 18.6677 36.0635 18.3185 35.9917 17.9213ZM34.5856 20.2243C34.493 20.2266 34.403 20.2312 34.3118 20.2342C33.8224 20.5607 32.3962 20.3259 32.911 21.4242C33.7991 20.7217 35.037 21.214 35.9245 21.5632C36.2527 21.4003 36.1815 21.0732 36.2031 20.7912C35.9182 20.261 35.2373 20.2113 34.5856 20.2243ZM44.7548 10.3491C43.026 10.2573 41.5783 11.2387 39.9898 11.6827C39.8514 10.331 40.8783 8.9035 41.1126 7.54653C38.5442 7.71177 36.5099 9.2577 34.3851 10.4927C33.8934 9.30452 33.4002 8.11027 32.9118 6.9177L35.7146 4.25437L35.7864 3.90352L32.0006 3.69273C31.3485 2.55013 31.0915 1.17384 30.3207 0.122786C29.69 1.31389 29.2663 2.57448 28.6362 3.76453L24.8548 3.97596V4.25437L27.7248 6.84569C27.3739 8.17767 27.0479 9.62492 26.1845 10.6317C24.5029 9.6245 22.8453 8.5283 21.0017 7.82893C20.558 7.68573 19.9256 7.45289 19.5286 7.75712C20.1116 9.04207 20.9282 10.4242 20.7909 11.8268C20.0197 11.6848 19.4135 11.1904 18.689 10.9825C17.8225 10.7461 16.7943 10.2842 15.9536 10.5651C17.3553 12.5259 18.4994 14.5781 18.8951 16.9378C23.5451 14.6935 28.9679 13.4592 34.597 14.4183C37.2355 14.8382 39.6618 15.913 42.0211 16.7984C42.1133 14.324 43.6781 12.3357 44.7548 10.3491ZM52.74 23.8041C55.1205 24.4342 57.5086 27.0278 60.0293 25.345C57.834 21.702 54.5664 18.3378 55.4751 13.5738C55.5702 13.2486 55.36 12.9194 55.0577 12.8732C53.6335 13.4552 52.5306 14.8584 51.9671 16.2376C51.7353 17.0533 51.598 17.9204 51.2715 18.6893C49.5654 17.8014 47.7448 16.9412 45.6662 17.149C44.9167 17.2425 43.8421 17.2916 43.7037 18.0611C46.0626 19.3217 48.0024 21.4255 49.448 23.6657C50.4546 23.5016 51.6889 23.6418 52.74 23.8041ZM27.7955 27.0965L27.8627 27.5187C28.7754 28.1267 29.0561 29.1572 30.3197 29.0636C31.4402 29.1301 32.2809 28.0803 32.8392 27.2401C31.3228 27.0308 29.4777 27.3547 27.7955 27.0965ZM29.0574 25.2058C29.1029 25.3929 28.9417 25.6732 29.1964 25.7676C29.9438 25.6053 31.2979 26.1653 31.7153 25.2778C31.4238 24.9513 30.9481 24.8031 30.4488 24.8031C29.9497 24.8031 29.4317 24.9486 29.0574 25.2058Z" fill="#007042"/>
<path opacity="0.99" d="M27.7969 24.3954H32.9182V26.4994H27.7969V24.3954Z" fill="white"/>
<path d="M28.7431 25.5203C29.4049 25.677 29.5687 25.9117 30.0917 25.9772C30.6477 25.9673 30.5675 25.8544 31.5373 25.5197C31.6009 25.4972 31.6884 25.3568 31.5799 25.2491C30.9777 24.6513 30.5616 25.0784 30.1841 25.0897C29.6833 25.0952 29.2136 24.661 28.7244 25.2253C28.6411 25.34 28.5976 25.4525 28.7431 25.5203Z" fill="#007042"/>
<path d="M52.938 60.0443V57.0475H51.8677V56.4374H54.734V57.0475H53.6662V60.0443H52.938Z" fill="#007042"/>
<path d="M55.1965 60.0425V56.4354H56.2864L56.9409 58.8959L57.588 56.4354H58.6804V60.0425H58.0037V57.2032L57.2877 60.0425H56.5865L55.873 57.2032V60.0425H55.1965Z" fill="#007042"/>
</g>
</svg>
